<?xml version="1.0" encoding="UTF-8"?>
<svg xmlns="http://www.w3.org/2000/svg" viewBox="0 0 100 100" role="img" aria-label="Themed lines pattern background">
  <defs>
    <style>
      /* 200 line paths: 130 (65%) bg-a, 50 (25%) surface, 20 (10%) ring */
      g > path { stroke: var(--bg-a, oklch(0.967 0.067 122.328)); }
      g > path:nth-of-type(n + 131):nth-of-type(-n + 180) {
        stroke: var(--surface, oklch(0.99 0.011 120.757 / 0.9));
      }
      g > path:nth-of-type(n + 181) { stroke: var(--ring, oklch(0.79 0.233 130.85)); }
    </style>

    <filter id="line-warp-filter">
      <feTurbulence type="fractalNoise" baseFrequency="0.03" seed="525.716776174076"/>
      <feDisplacementMap in="SourceGraphic" scale="20"/>
    </filter>
  </defs>

  <g fill="none" filter="url(#line-warp-filter)">
    <path stroke-width="0.457907" stroke-dasharray="31.173054 3.421154" d="M 50 120 Q 40.000000000000 80.000000000000 205.000000000000 60.000000000000"/>
    <path stroke-width="0.139028" stroke-dasharray="10.219405 4.170326" d="M 50 120 Q 39.990131207315 79.371784818437 204.938320045716 56.073655115234"/>
    <path stroke-width="0.327988" stroke-dasharray="38.928806 3.891728" d="M 50 120 Q 39.960534568565 78.744189609414 204.753341053534 52.151185058836"/>
    <path stroke-width="0.332950" stroke-dasharray="27.962456 1.012909" d="M 50 120 Q 39.911239292062 78.117833733630 204.445245575385 48.236460835186"/>
    <path stroke-width="0.141901" stroke-dasharray="26.550346 0.329751" d="M 50 120 Q 39.842294026290 77.493335328714 204.014337664310 44.333345804462"/>
    <path stroke-width="0.429284" stroke-dasharray="38.769597 1.905753" d="M 50 120 Q 39.753766811903 76.871310699195 203.461042574392 40.445691869971"/>
    <path stroke-width="0.352989" stroke-dasharray="27.075671 2.356617" d="M 50 120 Q 39.645745014574 76.252373708286 202.785906341086 36.577335676784"/>
    <path stroke-width="0.090011" stroke-dasharray="43.367207 3.543791" d="M 50 120 Q 39.518335238775 75.637135172069 201.989595242343 32.732094825432"/>
    <path stroke-width="0.407597" stroke-dasharray="5.239115 2.883632" d="M 50 120 Q 39.371663222573 75.026202256703 201.072895141079 28.913764104393"/>
    <path stroke-width="0.017403" stroke-dasharray="59.701977 2.337534" d="M 50 120 Q 39.205873713539 74.420177879215 200.036710709618 25.126111745096"/>
    <path stroke-width="0.482767" stroke-dasharray="21.623458 2.828292" d="M 50 120 Q 39.021130325903 73.819660112501 198.882064536894 21.372875703132"/>
    <path stroke-width="0.231526" stroke-dasharray="30.644927 0.563075" d="M 50 120 Q 38.817615379085 73.225241595094 197.610096119278 17.657759969339"/>
    <path stroke-width="0.269102" stroke-dasharray="49.420757 0.047689" d="M 50 120 Q 38.595529717765 72.637508946306 196.222060736031 13.984430914415"/>
    <path stroke-width="0.363797" stroke-dasharray="35.941379 1.317853" d="M 50 120 Q 38.355092513680 72.057042187304 194.719328210498 10.356513670652"/>
    <path stroke-width="0.498414" stroke-dasharray="5.626444 4.151203" d="M 50 120 Q 38.096541049320 71.484414168699 193.103381558252 6.777588554366"/>
    <path stroke-width="0.193810" stroke-dasharray="21.354545 1.849745" d="M 50 120 Q 37.820130483767 70.920190005209 191.375815523546 3.251187532557"/>
    <path stroke-width="0.499800" stroke-dasharray="16.966094 3.266676" d="M 50 120 Q 37.526133600877 70.364926517966 189.538335005483 -0.219209262714"/>
    <path stroke-width="0.036688" stroke-dasharray="38.200871 1.687112" d="M 50 120 Q 37.214840540079 69.819171684993 187.592753375493 -3.630176968796"/>
    <path stroke-width="0.158307" stroke-dasharray="10.144440 0.944233" d="M 50 120 Q 36.886558510040 69.283464100420 185.540990687752 -6.978349372375"/>
    <path stroke-width="0.175555" stroke-dasharray="50.735113 0.698943" d="M 50 120 Q 36.541611485491 68.758332442957 183.385071784320 -10.260422231516"/>
    <path stroke-width="0.084827" stroke-dasharray="31.676859 0.718062" d="M 50 120 Q 36.180339887499 68.244294954151 181.127124296868 -13.473156536559"/>
    <path stroke-width="0.177863" stroke-dasharray="21.324595 4.391371" d="M 50 120 Q 35.803100247514 67.741858926940 178.769376546961 -16.613381706622"/>
    <path stroke-width="0.303663" stroke-dasharray="48.876274 3.490903" d="M 50 120 Q 35.410264855516 67.251520205026 176.314155346974 -19.677998718586"/>
    <path stroke-width="0.232809" stroke-dasharray="55.062643 1.767234" d="M 50 120 Q 35.002221392609 66.773762693527 173.763883703807 -22.663983165456"/>
    <path stroke-width="0.483489" stroke-dasharray="6.581144 3.788824" d="M 50 120 Q 34.579372548428 66.309057881426 171.121078427676 -25.568388241086"/>
    <path stroke-width="0.428832" stroke-dasharray="53.598771 2.452065" d="M 50 120 Q 34.142135623731 65.857864376269 168.388347648318 -28.388347648318"/>
    <path stroke-width="0.447095" stroke-dasharray="26.307685 1.184221" d="M 50 120 Q 33.690942118574 65.420627451572 165.568388241086 -31.121078427676"/>
    <path stroke-width="0.438326" stroke-dasharray="21.703270 4.673618" d="M 50 120 Q 33.226237306473 64.997778607391 162.663983165457 -33.763883703807"/>
    <path stroke-width="0.381598" stroke-dasharray="15.055664 1.150348" d="M 50 120 Q 32.748479794974 64.589735144484 159.677998718586 -36.314155346974"/>
    <path stroke-width="0.492879" stroke-dasharray="50.966044 0.560989" d="M 50 120 Q 32.258141073060 64.196899752486 156.613381706622 -38.769376546961"/>
    <path stroke-width="0.318781" stroke-dasharray="39.871724 3.085196" d="M 50 120 Q 31.755705045849 63.819660112501 153.473156536559 -41.127124296868"/>
    <path stroke-width="0.078994" stroke-dasharray="45.755338 2.413976" d="M 50 120 Q 31.241667557043 63.458388514509 150.260422231516 -43.385071784320"/>
    <path stroke-width="0.052906" stroke-dasharray="22.459492 2.353463" d="M 50 120 Q 30.716535899580 63.113441489960 146.978349372375 -45.540990687752"/>
    <path stroke-width="0.102610" stroke-dasharray="39.670901 3.549017" d="M 50 120 Q 30.180828315007 62.785159459921 143.630176968796 -47.592753375493"/>
    <path stroke-width="0.097021" stroke-dasharray="56.114329 2.124864" d="M 50 120 Q 29.635073482034 62.473866399123 140.219209262714 -49.538335005483"/>
    <path stroke-width="0.273476" stroke-dasharray="39.499300 0.588983" d="M 50 120 Q 29.079809994791 62.179869516233 136.748812467443 -51.375815523546"/>
    <path stroke-width="0.045196" stroke-dasharray="14.051358 4.011735" d="M 50 120 Q 28.515585831301 61.903458950680 133.222411445634 -53.103381558252"/>
    <path stroke-width="0.473850" stroke-dasharray="7.353952 1.238995" d="M 50 120 Q 27.942957812696 61.644907486320 129.643486329348 -54.719328210498"/>
    <path stroke-width="0.459721" stroke-dasharray="55.242315 1.271533" d="M 50 120 Q 27.362491053694 61.404470282235 126.015569085585 -56.222060736031"/>
    <path stroke-width="0.116582" stroke-dasharray="29.409322 2.443232" d="M 50 120 Q 26.774758404906 61.182384620915 122.342240030661 -57.610096119278"/>
    <path stroke-width="0.296982" stroke-dasharray="6.130109 2.647385" d="M 50 120 Q 26.180339887499 60.978869674097 118.627124296868 -58.882064536894"/>
    <path stroke-width="0.125708" stroke-dasharray="15.182902 4.655180" d="M 50 120 Q 25.579822120785 60.794126286461 114.873888254904 -60.036710709618"/>
    <path stroke-width="0.449259" stroke-dasharray="24.794933 4.807994" d="M 50 120 Q 24.973797743297 60.628336777427 111.086235895607 -61.072895141079"/>
    <path stroke-width="0.399355" stroke-dasharray="36.359133 4.972820" d="M 50 120 Q 24.362864827931 60.481664761225 107.267905174568 -61.989595242343"/>
    <path stroke-width="0.065366" stroke-dasharray="22.622754 4.937152" d="M 50 120 Q 23.747626291714 60.354254985426 103.422664323216 -62.785906341086"/>
    <path stroke-width="0.185718" stroke-dasharray="52.035639 1.698950" d="M 50 120 Q 23.128689300805 60.246233188097 99.554308130029 -63.461042574392"/>
    <path stroke-width="0.404756" stroke-dasharray="11.924505 0.667920" d="M 50 120 Q 22.506664671286 60.157705973710 95.666654195538 -64.014337664310"/>
    <path stroke-width="0.361005" stroke-dasharray="18.482531 0.365405" d="M 50 120 Q 21.882166266370 60.088760707938 91.763539164814 -64.445245575385"/>
    <path stroke-width="0.044784" stroke-dasharray="51.929623 2.239967" d="M 50 120 Q 21.255810390586 60.039465431435 87.848814941164 -64.753341053534"/>
    <path stroke-width="0.451417" stroke-dasharray="11.071796 2.960960" d="M 50 120 Q 20.628215181563 60.009868792685 83.926344884766 -64.938320045716"/>
    <path stroke-width="0.230005" stroke-dasharray="58.680470 4.215993" d="M 50 120 Q 20.000000000000 60.000000000000 80.000000000000 -65.000000000000"/>
    <path stroke-width="0.018514" stroke-dasharray="57.720273 1.018161" d="M 50 120 Q 19.371784818437 60.009868792685 76.073655115234 -64.938320045716"/>
    <path stroke-width="0.344144" stroke-dasharray="39.100568 2.547491" d="M 50 120 Q 18.744189609414 60.039465431435 72.151185058836 -64.753341053534"/>
    <path stroke-width="0.285430" stroke-dasharray="37.002901 0.113632" d="M 50 120 Q 18.117833733630 60.088760707938 68.236460835186 -64.445245575385"/>
    <path stroke-width="0.272740" stroke-dasharray="6.047873 0.846615" d="M 50 120 Q 17.493335328714 60.157705973710 64.333345804462 -64.014337664310"/>
    <path stroke-width="0.345895" stroke-dasharray="16.838387 2.320157" d="M 50 120 Q 16.871310699195 60.246233188097 60.445691869971 -63.461042574392"/>
    <path stroke-width="0.291513" stroke-dasharray="59.742882 4.316548" d="M 50 120 Q 16.252373708286 60.354254985426 56.577335676784 -62.785906341086"/>
    <path stroke-width="0.437631" stroke-dasharray="36.374133 4.332083" d="M 50 120 Q 15.637135172069 60.481664761225 52.732094825432 -61.989595242343"/>
    <path stroke-width="0.227490" stroke-dasharray="48.023533 4.611830" d="M 50 120 Q 15.026202256703 60.628336777427 48.913764104393 -61.072895141079"/>
    <path stroke-width="0.206360" stroke-dasharray="50.476292 4.272042" d="M 50 120 Q 14.420177879215 60.794126286461 45.126111745096 -60.036710709618"/>
    <path stroke-width="0.012662" stroke-dasharray="27.843173 3.141322" d="M 50 120 Q 13.819660112501 60.978869674097 41.372875703132 -58.882064536894"/>
    <path stroke-width="0.036561" stroke-dasharray="27.879286 4.926422" d="M 50 120 Q 13.225241595094 61.182384620915 37.657759969339 -57.610096119278"/>
    <path stroke-width="0.146901" stroke-dasharray="16.482829 1.211128" d="M 50 120 Q 12.637508946306 61.404470282235 33.984430914415 -56.222060736031"/>
    <path stroke-width="0.346700" stroke-dasharray="56.291626 0.462635" d="M 50 120 Q 12.057042187304 61.644907486320 30.356513670652 -54.719328210498"/>
    <path stroke-width="0.299220" stroke-dasharray="42.128988 4.518153" d="M 50 120 Q 11.484414168699 61.903458950680 26.777588554366 -53.103381558252"/>
    <path stroke-width="0.238822" stroke-dasharray="40.501251 0.216591" d="M 50 120 Q 10.920190005209 62.179869516233 23.251187532557 -51.375815523546"/>
    <path stroke-width="0.181814" stroke-dasharray="46.390874 4.298856" d="M 50 120 Q 10.364926517966 62.473866399123 19.780790737286 -49.538335005483"/>
    <path stroke-width="0.468547" stroke-dasharray="49.848248 4.665289" d="M 50 120 Q 9.819171684993 62.785159459921 16.369823031204 -47.592753375493"/>
    <path stroke-width="0.315597" stroke-dasharray="35.293773 2.476350" d="M 50 120 Q 9.283464100420 63.113441489960 13.021650627625 -45.540990687752"/>
    <path stroke-width="0.284471" stroke-dasharray="46.115218 4.797700" d="M 50 120 Q 8.758332442957 63.458388514509 9.739577768484 -43.385071784320"/>
    <path stroke-width="0.017583" stroke-dasharray="50.589278 4.218763" d="M 50 120 Q 8.244294954151 63.819660112501 6.526843463441 -41.127124296868"/>
    <path stroke-width="0.030619" stroke-dasharray="17.750339 2.950284" d="M 50 120 Q 7.741858926940 64.196899752486 3.386618293378 -38.769376546961"/>
    <path stroke-width="0.109907" stroke-dasharray="36.633074 0.285428" d="M 50 120 Q 7.251520205026 64.589735144484 0.322001281414 -36.314155346974"/>
    <path stroke-width="0.246477" stroke-dasharray="12.639559 2.249354" d="M 50 120 Q 6.773762693527 64.997778607391 -2.663983165456 -33.763883703807"/>
    <path stroke-width="0.111573" stroke-dasharray="49.807787 2.328302" d="M 50 120 Q 6.309057881426 65.420627451572 -5.568388241086 -31.121078427676"/>
    <path stroke-width="0.206579" stroke-dasharray="15.179740 1.184594" d="M 50 120 Q 5.857864376269 65.857864376269 -8.388347648318 -28.388347648318"/>
    <path stroke-width="0.034853" stroke-dasharray="43.777322 1.447076" d="M 50 120 Q 5.420627451572 66.309057881426 -11.121078427676 -25.568388241086"/>
    <path stroke-width="0.423546" stroke-dasharray="57.447911 3.333424" d="M 50 120 Q 4.997778607391 66.773762693527 -13.763883703807 -22.663983165456"/>
    <path stroke-width="0.390204" stroke-dasharray="41.318110 0.369647" d="M 50 120 Q 4.589735144484 67.251520205026 -16.314155346974 -19.677998718586"/>
    <path stroke-width="0.458770" stroke-dasharray="42.673956 4.388637" d="M 50 120 Q 4.196899752486 67.741858926940 -18.769376546961 -16.613381706622"/>
    <path stroke-width="0.377534" stroke-dasharray="50.691107 0.729558" d="M 50 120 Q 3.819660112501 68.244294954151 -21.127124296868 -13.473156536559"/>
    <path stroke-width="0.012606" stroke-dasharray="27.287208 1.902918" d="M 50 120 Q 3.458388514509 68.758332442957 -23.385071784320 -10.260422231516"/>
    <path stroke-width="0.028735" stroke-dasharray="59.265490 0.355456" d="M 50 120 Q 3.113441489960 69.283464100420 -25.540990687752 -6.978349372375"/>
    <path stroke-width="0.141663" stroke-dasharray="13.294549 4.084061" d="M 50 120 Q 2.785159459921 69.819171684993 -27.592753375493 -3.630176968796"/>
    <path stroke-width="0.433843" stroke-dasharray="29.504488 1.546505" d="M 50 120 Q 2.473866399123 70.364926517966 -29.538335005483 -0.219209262714"/>
    <path stroke-width="0.412174" stroke-dasharray="11.605811 0.098688" d="M 50 120 Q 2.179869516233 70.920190005209 -31.375815523546 3.251187532557"/>
    <path stroke-width="0.194414" stroke-dasharray="12.301106 2.696311" d="M 50 120 Q 1.903458950680 71.484414168699 -33.103381558252 6.777588554366"/>
    <path stroke-width="0.314249" stroke-dasharray="52.042664 3.332767" d="M 50 120 Q 1.644907486320 72.057042187304 -34.719328210498 10.356513670652"/>
    <path stroke-width="0.294008" stroke-dasharray="36.220696 0.531568" d="M 50 120 Q 1.404470282235 72.637508946306 -36.222060736031 13.984430914415"/>
    <path stroke-width="0.288485" stroke-dasharray="11.935888 0.504210" d="M 50 120 Q 1.182384620915 73.225241595094 -37.610096119278 17.657759969339"/>
    <path stroke-width="0.231247" stroke-dasharray="47.687744 1.857722" d="M 50 120 Q 0.978869674097 73.819660112501 -38.882064536894 21.372875703132"/>
    <path stroke-width="0.175683" stroke-dasharray="44.464720 3.038518" d="M 50 120 Q 0.794126286461 74.420177879215 -40.036710709618 25.126111745096"/>
    <path stroke-width="0.308661" stroke-dasharray="35.157609 1.779040" d="M 50 120 Q 0.628336777427 75.026202256703 -41.072895141079 28.913764104393"/>
    <path stroke-width="0.084522" stroke-dasharray="57.356971 3.115055" d="M 50 120 Q 0.481664761225 75.637135172069 -41.989595242343 32.732094825432"/>
    <path stroke-width="0.181048" stroke-dasharray="49.271156 2.174756" d="M 50 120 Q 0.354254985426 76.252373708286 -42.785906341086 36.577335676784"/>
    <path stroke-width="0.125359" stroke-dasharray="34.517319 4.760372" d="M 50 120 Q 0.246233188097 76.871310699195 -43.461042574392 40.445691869971"/>
    <path stroke-width="0.220289" stroke-dasharray="26.832443 1.121349" d="M 50 120 Q 0.157705973710 77.493335328714 -44.014337664310 44.333345804462"/>
    <path stroke-width="0.280129" stroke-dasharray="57.661825 0.090278" d="M 50 120 Q 0.088760707938 78.117833733630 -44.445245575385 48.236460835186"/>
    <path stroke-width="0.268080" stroke-dasharray="10.237196 3.914120" d="M 50 120 Q 0.039465431435 78.744189609414 -44.753341053534 52.151185058836"/>
    <path stroke-width="0.207698" stroke-dasharray="36.361201 3.665811" d="M 50 120 Q 0.009868792685 79.371784818437 -44.938320045716 56.073655115234"/>
    <path stroke-width="0.492108" stroke-dasharray="7.539008 4.350430" d="M 50 120 Q 0.000000000000 80.000000000000 -45.000000000000 60.000000000000"/>
    <path stroke-width="0.035886" stroke-dasharray="52.272739 3.515920" d="M 50 120 Q 0.009868792685 80.628215181563 -44.938320045716 63.926344884766"/>
    <path stroke-width="0.024853" stroke-dasharray="12.489146 0.662136" d="M 50 120 Q 0.039465431435 81.255810390586 -44.753341053534 67.848814941164"/>
    <path stroke-width="0.209068" stroke-dasharray="41.523532 1.211596" d="M 50 120 Q 0.088760707938 81.882166266370 -44.445245575385 71.763539164814"/>
    <path stroke-width="0.407244" stroke-dasharray="56.137129 0.273013" d="M 50 120 Q 0.157705973710 82.506664671286 -44.014337664310 75.666654195538"/>
    <path stroke-width="0.213701" stroke-dasharray="33.302414 2.322660" d="M 50 120 Q 0.246233188097 83.128689300805 -43.461042574392 79.554308130029"/>
    <path stroke-width="0.473945" stroke-dasharray="43.001198 1.859474" d="M 50 120 Q 0.354254985426 83.747626291714 -42.785906341086 83.422664323216"/>
    <path stroke-width="0.296109" stroke-dasharray="36.104342 3.224031" d="M 50 120 Q 0.481664761225 84.362864827931 -41.989595242343 87.267905174568"/>
    <path stroke-width="0.068842" stroke-dasharray="40.171966 2.293307" d="M 50 120 Q 0.628336777427 84.973797743297 -41.072895141079 91.086235895607"/>
    <path stroke-width="0.082534" stroke-dasharray="21.318748 3.713877" d="M 50 120 Q 0.794126286461 85.579822120785 -40.036710709618 94.873888254904"/>
    <path stroke-width="0.278875" stroke-dasharray="54.338333 1.855861" d="M 50 120 Q 0.978869674097 86.180339887499 -38.882064536894 98.627124296868"/>
    <path stroke-width="0.107771" stroke-dasharray="49.415193 3.270137" d="M 50 120 Q 1.182384620915 86.774758404906 -37.610096119278 102.342240030661"/>
    <path stroke-width="0.145952" stroke-dasharray="51.269516 2.200244" d="M 50 120 Q 1.404470282235 87.362491053694 -36.222060736031 106.015569085585"/>
    <path stroke-width="0.124776" stroke-dasharray="19.106673 3.799908" d="M 50 120 Q 1.644907486320 87.942957812696 -34.719328210498 109.643486329348"/>
    <path stroke-width="0.443841" stroke-dasharray="6.022728 2.325961" d="M 50 120 Q 1.903458950680 88.515585831301 -33.103381558252 113.222411445634"/>
    <path stroke-width="0.285077" stroke-dasharray="25.882934 1.205071" d="M 50 120 Q 2.179869516233 89.079809994791 -31.375815523546 116.748812467443"/>
    <path stroke-width="0.111925" stroke-dasharray="55.076397 1.324507" d="M 50 120 Q 2.473866399123 89.635073482034 -29.538335005483 120.219209262714"/>
    <path stroke-width="0.316540" stroke-dasharray="40.720603 1.834002" d="M 50 120 Q 2.785159459921 90.180828315007 -27.592753375493 123.630176968796"/>
    <path stroke-width="0.074607" stroke-dasharray="51.074720 2.447392" d="M 50 120 Q 3.113441489960 90.716535899580 -25.540990687752 126.978349372375"/>
    <path stroke-width="0.300127" stroke-dasharray="37.554354 2.056988" d="M 50 120 Q 3.458388514509 91.241667557043 -23.385071784320 130.260422231516"/>
    <path stroke-width="0.191099" stroke-dasharray="54.730683 4.034068" d="M 50 120 Q 3.819660112501 91.755705045849 -21.127124296868 133.473156536559"/>
    <path stroke-width="0.394419" stroke-dasharray="5.922528 1.726022" d="M 50 120 Q 4.196899752486 92.258141073060 -18.769376546961 136.613381706622"/>
    <path stroke-width="0.363361" stroke-dasharray="43.567460 2.227175" d="M 50 120 Q 4.589735144484 92.748479794974 -16.314155346974 139.677998718586"/>
    <path stroke-width="0.436463" stroke-dasharray="19.436738 4.299184" d="M 50 120 Q 4.997778607391 93.226237306473 -13.763883703807 142.663983165456"/>
    <path stroke-width="0.145593" stroke-dasharray="42.155576 1.364676" d="M 50 120 Q 5.420627451572 93.690942118574 -11.121078427676 145.568388241086"/>
    <path stroke-width="0.130610" stroke-dasharray="58.959535 4.646894" d="M 50 120 Q 5.857864376269 94.142135623731 -8.388347648318 148.388347648318"/>
    <path stroke-width="0.334483" stroke-dasharray="17.575287 2.875060" d="M 50 120 Q 6.309057881426 94.579372548428 -5.568388241086 151.121078427676"/>
    <path stroke-width="0.473693" stroke-dasharray="33.206911 0.236271" d="M 50 120 Q 6.773762693527 95.002221392609 -2.663983165456 153.763883703807"/>
    <path stroke-width="0.354846" stroke-dasharray="36.554278 3.958966" d="M 50 120 Q 7.251520205026 95.410264855516 0.322001281414 156.314155346974"/>
    <path stroke-width="0.095340" stroke-dasharray="13.431248 2.806330" d="M 50 120 Q 7.741858926940 95.803100247514 3.386618293378 158.769376546961"/>
    <path stroke-width="0.342625" stroke-dasharray="47.142476 3.613523" d="M 50 120 Q 8.244294954151 96.180339887499 6.526843463441 161.127124296868"/>
    <path stroke-width="0.459438" stroke-dasharray="17.964449 3.693049" d="M 50 120 Q 8.758332442957 96.541611485491 9.739577768484 163.385071784320"/>
    <path stroke-width="0.345506" stroke-dasharray="42.898824 3.768951" d="M 50 120 Q 9.283464100420 96.886558510040 13.021650627625 165.540990687752"/>
    <path stroke-width="0.473607" stroke-dasharray="8.324667 3.080814" d="M 50 120 Q 9.819171684993 97.214840540079 16.369823031204 167.592753375493"/>
    <path stroke-width="0.359996" stroke-dasharray="48.562042 0.379711" d="M 50 120 Q 10.364926517966 97.526133600877 19.780790737286 169.538335005483"/>
    <path stroke-width="0.321017" stroke-dasharray="10.382771 3.624048" d="M 50 120 Q 10.920190005209 97.820130483767 23.251187532557 171.375815523546"/>
    <path stroke-width="0.173425" stroke-dasharray="15.494486 0.624145" d="M 50 120 Q 11.484414168699 98.096541049320 26.777588554366 173.103381558252"/>
    <path stroke-width="0.209440" stroke-dasharray="53.600904 1.597744" d="M 50 120 Q 12.057042187304 98.355092513680 30.356513670652 174.719328210498"/>
    <path stroke-width="0.448200" stroke-dasharray="13.914897 0.085164" d="M 50 120 Q 12.637508946306 98.595529717765 33.984430914415 176.222060736031"/>
    <path stroke-width="0.226128" stroke-dasharray="26.042402 0.564003" d="M 50 120 Q 13.225241595094 98.817615379085 37.657759969339 177.610096119278"/>
    <path stroke-width="0.437240" stroke-dasharray="9.508073 4.345497" d="M 50 120 Q 13.819660112501 99.021130325903 41.372875703132 178.882064536894"/>
    <path stroke-width="0.229885" stroke-dasharray="8.111987 4.593443" d="M 50 120 Q 14.420177879215 99.205873713539 45.126111745096 180.036710709618"/>
    <path stroke-width="0.267832" stroke-dasharray="9.130789 2.297992" d="M 50 120 Q 15.026202256703 99.371663222573 48.913764104393 181.072895141079"/>
    <path stroke-width="0.227492" stroke-dasharray="31.409610 0.273074" d="M 50 120 Q 15.637135172069 99.518335238775 52.732094825432 181.989595242343"/>
    <path stroke-width="0.117508" stroke-dasharray="32.784778 0.435086" d="M 50 120 Q 16.252373708286 99.645745014574 56.577335676784 182.785906341086"/>
    <path stroke-width="0.138850" stroke-dasharray="16.496547 1.706455" d="M 50 120 Q 16.871310699195 99.753766811903 60.445691869971 183.461042574392"/>
    <path stroke-width="0.088130" stroke-dasharray="47.498059 2.479380" d="M 50 120 Q 17.493335328714 99.842294026290 64.333345804462 184.014337664310"/>
    <path stroke-width="0.458138" stroke-dasharray="26.465619 1.273146" d="M 50 120 Q 18.117833733630 99.911239292062 68.236460835186 184.445245575385"/>
    <path stroke-width="0.436495" stroke-dasharray="58.002833 4.826117" d="M 50 120 Q 18.744189609414 99.960534568565 72.151185058836 184.753341053534"/>
    <path stroke-width="0.143457" stroke-dasharray="16.888941 4.545097" d="M 50 120 Q 19.371784818437 99.990131207315 76.073655115234 184.938320045716"/>
    <path stroke-width="0.117682" stroke-dasharray="40.264574 3.890138" d="M 50 120 Q 20.000000000000 100.000000000000 80.000000000000 185.000000000000"/>
    <path stroke-width="0.411351" stroke-dasharray="14.551051 1.450921" d="M 50 120 Q 20.628215181563 99.990131207315 83.926344884766 184.938320045716"/>
    <path stroke-width="0.087469" stroke-dasharray="10.055587 1.215422" d="M 50 120 Q 21.255810390586 99.960534568565 87.848814941164 184.753341053534"/>
    <path stroke-width="0.215501" stroke-dasharray="12.105809 4.409713" d="M 50 120 Q 21.882166266370 99.911239292062 91.763539164814 184.445245575385"/>
    <path stroke-width="0.201138" stroke-dasharray="30.449001 1.692338" d="M 50 120 Q 22.506664671286 99.842294026290 95.666654195538 184.014337664310"/>
    <path stroke-width="0.289286" stroke-dasharray="40.702100 3.901399" d="M 50 120 Q 23.128689300805 99.753766811903 99.554308130029 183.461042574392"/>
    <path stroke-width="0.024453" stroke-dasharray="43.196175 0.725850" d="M 50 120 Q 23.747626291714 99.645745014574 103.422664323216 182.785906341086"/>
    <path stroke-width="0.099363" stroke-dasharray="23.426912 2.758177" d="M 50 120 Q 24.362864827931 99.518335238775 107.267905174568 181.989595242343"/>
    <path stroke-width="0.214094" stroke-dasharray="53.296191 3.773444" d="M 50 120 Q 24.973797743297 99.371663222573 111.086235895607 181.072895141079"/>
    <path stroke-width="0.241122" stroke-dasharray="11.655404 0.285257" d="M 50 120 Q 25.579822120785 99.205873713539 114.873888254904 180.036710709618"/>
    <path stroke-width="0.061302" stroke-dasharray="18.128586 4.253537" d="M 50 120 Q 26.180339887499 99.021130325903 118.627124296868 178.882064536894"/>
    <path stroke-width="0.010119" stroke-dasharray="18.170007 3.565474" d="M 50 120 Q 26.774758404906 98.817615379085 122.342240030661 177.610096119278"/>
    <path stroke-width="0.027328" stroke-dasharray="24.748563 4.174890" d="M 50 120 Q 27.362491053694 98.595529717765 126.015569085585 176.222060736031"/>
    <path stroke-width="0.280549" stroke-dasharray="28.544214 1.300898" d="M 50 120 Q 27.942957812696 98.355092513680 129.643486329347 174.719328210498"/>
    <path stroke-width="0.087600" stroke-dasharray="50.398967 4.268681" d="M 50 120 Q 28.515585831301 98.096541049320 133.222411445634 173.103381558252"/>
    <path stroke-width="0.328561" stroke-dasharray="12.141705 4.716846" d="M 50 120 Q 29.079809994791 97.820130483767 136.748812467443 171.375815523546"/>
    <path stroke-width="0.424691" stroke-dasharray="46.288815 2.029431" d="M 50 120 Q 29.635073482034 97.526133600877 140.219209262714 169.538335005483"/>
    <path stroke-width="0.344852" stroke-dasharray="49.715434 3.542797" d="M 50 120 Q 30.180828315007 97.214840540079 143.630176968796 167.592753375493"/>
    <path stroke-width="0.432837" stroke-dasharray="5.036392 1.843490" d="M 50 120 Q 30.716535899580 96.886558510040 146.978349372375 165.540990687752"/>
    <path stroke-width="0.335693" stroke-dasharray="16.059473 1.020407" d="M 50 120 Q 31.241667557043 96.541611485491 150.260422231516 163.385071784320"/>
    <path stroke-width="0.348551" stroke-dasharray="8.912613 0.659722" d="M 50 120 Q 31.755705045849 96.180339887499 153.473156536559 161.127124296868"/>
    <path stroke-width="0.333335" stroke-dasharray="27.836015 1.560508" d="M 50 120 Q 32.258141073060 95.803100247514 156.613381706622 158.769376546961"/>
    <path stroke-width="0.212535" stroke-dasharray="37.080807 1.684317" d="M 50 120 Q 32.748479794974 95.410264855516 159.677998718586 156.314155346974"/>
    <path stroke-width="0.033079" stroke-dasharray="42.550437 1.292713" d="M 50 120 Q 33.226237306473 95.002221392609 162.663983165456 153.763883703807"/>
    <path stroke-width="0.053870" stroke-dasharray="44.565057 3.086925" d="M 50 120 Q 33.690942118574 94.579372548428 165.568388241086 151.121078427677"/>
    <path stroke-width="0.136646" stroke-dasharray="47.460008 4.348544" d="M 50 120 Q 34.142135623731 94.142135623731 168.388347648318 148.388347648319"/>
    <path stroke-width="0.495830" stroke-dasharray="54.821250 0.953955" d="M 50 120 Q 34.579372548428 93.690942118574 171.121078427676 145.568388241086"/>
    <path stroke-width="0.051266" stroke-dasharray="45.107371 2.511243" d="M 50 120 Q 35.002221392609 93.226237306473 173.763883703807 142.663983165456"/>
    <path stroke-width="0.400328" stroke-dasharray="15.290706 4.667829" d="M 50 120 Q 35.410264855516 92.748479794974 176.314155346974 139.677998718586"/>
    <path stroke-width="0.044688" stroke-dasharray="46.093508 2.264347" d="M 50 120 Q 35.803100247514 92.258141073060 178.769376546961 136.613381706622"/>
    <path stroke-width="0.397663" stroke-dasharray="26.360536 1.951746" d="M 50 120 Q 36.180339887499 91.755705045849 181.127124296868 133.473156536559"/>
    <path stroke-width="0.478439" stroke-dasharray="13.420761 4.717954" d="M 50 120 Q 36.541611485491 91.241667557043 183.385071784320 130.260422231516"/>
    <path stroke-width="0.224449" stroke-dasharray="14.657942 2.108852" d="M 50 120 Q 36.886558510040 90.716535899580 185.540990687752 126.978349372375"/>
    <path stroke-width="0.057130" stroke-dasharray="41.706748 1.010946" d="M 50 120 Q 37.214840540079 90.180828315007 187.592753375493 123.630176968796"/>
    <path stroke-width="0.181775" stroke-dasharray="56.334493 3.246367" d="M 50 120 Q 37.526133600877 89.635073482034 189.538335005483 120.219209262715"/>
    <path stroke-width="0.366340" stroke-dasharray="7.610453 3.399513" d="M 50 120 Q 37.820130483767 89.079809994791 191.375815523546 116.748812467443"/>
    <path stroke-width="0.278769" stroke-dasharray="49.034486 0.863946" d="M 50 120 Q 38.096541049320 88.515585831301 193.103381558252 113.222411445634"/>
    <path stroke-width="0.131071" stroke-dasharray="23.040366 0.435652" d="M 50 120 Q 38.355092513680 87.942957812696 194.719328210498 109.643486329348"/>
    <path stroke-width="0.411198" stroke-dasharray="54.555212 0.293488" d="M 50 120 Q 38.595529717765 87.362491053694 196.222060736031 106.015569085585"/>
    <path stroke-width="0.462993" stroke-dasharray="42.116005 2.225973" d="M 50 120 Q 38.817615379085 86.774758404906 197.610096119278 102.342240030661"/>
    <path stroke-width="0.223522" stroke-dasharray="34.810362 3.235194" d="M 50 120 Q 39.021130325903 86.180339887499 198.882064536894 98.627124296868"/>
    <path stroke-width="0.333198" stroke-dasharray="7.703226 0.047334" d="M 50 120 Q 39.205873713539 85.579822120785 200.036710709618 94.873888254904"/>
    <path stroke-width="0.254718" stroke-dasharray="28.236640 3.641983" d="M 50 120 Q 39.371663222573 84.973797743297 201.072895141079 91.086235895607"/>
    <path stroke-width="0.308958" stroke-dasharray="12.397998 3.409105" d="M 50 120 Q 39.518335238775 84.362864827931 201.989595242343 87.267905174568"/>
    <path stroke-width="0.013495" stroke-dasharray="7.643277 0.944384" d="M 50 120 Q 39.645745014574 83.747626291714 202.785906341086 83.422664323216"/>
    <path stroke-width="0.135522" stroke-dasharray="46.746945 0.885474" d="M 50 120 Q 39.753766811903 83.128689300805 203.461042574392 79.554308130029"/>
    <path stroke-width="0.377888" stroke-dasharray="24.862792 1.670876" d="M 50 120 Q 39.842294026290 82.506664671286 204.014337664310 75.666654195538"/>
    <path stroke-width="0.125651" stroke-dasharray="39.490662 2.553273" d="M 50 120 Q 39.911239292062 81.882166266370 204.445245575385 71.763539164814"/>
    <path stroke-width="0.286627" stroke-dasharray="12.069960 0.089309" d="M 50 120 Q 39.960534568565 81.255810390586 204.753341053534 67.848814941164"/>
    <path stroke-width="0.314486" stroke-dasharray="20.281409 3.814756" d="M 50 120 Q 39.990131207315 80.628215181563 204.938320045716 63.926344884766"/>
  </g>
</svg>
